<svg xmlns:inkscape="http://www.inkscape.org/namespaces/inkscape" xmlns:sodipodi="http://sodipodi.sourceforge.net/DTD/sodipodi-0.dtd" xmlns="http://www.w3.org/2000/svg" xmlns:svg="http://www.w3.org/2000/svg" width="191.95518mm" height="53.560032mm" viewBox="0 0 191.95518 53.560032" version="1.1" id="svg5" inkscape:version="1.1.2 (b8e25be833, 2022-02-05)" sodipodi:docname="Blingee.svg">
  <sodipodi:namedview id="namedview7" pagecolor="#ffffff" bordercolor="#666666" borderopacity="1.0" inkscape:pageshadow="2" inkscape:pageopacity="0.0" inkscape:pagecheckerboard="0" inkscape:document-units="mm" showgrid="false" inkscape:zoom="0.90583672" inkscape:cx="506.16186" inkscape:cy="294.75511" inkscape:window-width="1920" inkscape:window-height="1017" inkscape:window-x="-8" inkscape:window-y="-8" inkscape:window-maximized="1" inkscape:current-layer="layer1"/>
  <defs id="defs2">
    <style id="style824">
      .cls-1 {
        fill: #e83c50;
      }

      .cls-1, .cls-2, .cls-3 {
        stroke-width: 0px;
      }

      .cls-2 {
        fill: #000;
      }

      .cls-3 {
        fill: #fff;
      }
    </style>
  </defs>
  <g inkscape:label="Layer 1" inkscape:groupmode="layer" id="layer1" transform="translate(-0.58707149,-38.901089)">
    <g id="g880" transform="matrix(0.09874321,0,0,0.09874321,-2.1507199,-33.033599)">
      <g id="g832">
        <path class="cls-1" d="m 1944.87,1014.25 c -73.02,122.62 -169.69,106.57 -176.85,43.64 41.44,-2.14 153.06,-13.65 153.06,-75.66 0,-76.15 -127.64,-87.83 -221.09,-28.12 -39.65,25.33 -52.03,62.8 -42.26,97.56 -68.01,80.81 -144.16,61.8 -150.49,6.22 41.44,-2.14 153.06,-13.65 153.06,-75.66 0,-43.77 -42.17,-66.23 -95.78,-66.09 0,0 0,0 0,0 h -0.73 c -0.08,0 -0.16,0 -0.24,0 h -177.89 l -4.46,17.79 c 0,0 -68.63,-40.26 -142.19,5.99 -31.2,19.62 -54.56,54.41 -61.38,89.28 -20.77,39.61 -32.88,52.73 -50.76,50.65 -20.57,-2.39 4.78,-50.71 15.31,-76.55 10.52,-25.83 -3.83,-85.74 -57.41,-85.74 -32.53,0 -45.74,0.1 -85.3,19.71 l 1.1,-13.87 H 889.1 l -18.78,55.45 c -40.1,104.59 -67.39,112.02 -76.95,94.48 -10.25,-18.8 48.66,-151.51 48.66,-151.51 H 723.9 c 0,0 -19.66,48.01 -32.83,99.31 -55.43,88.75 -72.83,62.09 -58.27,13.97 L 713.4,806.16 H 598.25 c 0,0 -41.79,100.3 -65.05,189.65 -8.86,-20.99 -27.27,-40.22 -53.83,-52.21 79.75,-32.89 98.67,-97.13 47.31,-127.63 C 475.32,785.46 314.47,752.76 146.42,813.72 34.68,862.51 14.83,914.66 34.32,963.63 c 19.49,48.96 87.47,29.95 110.76,-3.33 -48.49,-29 -29,-72.73 21.87,-105.06 38.03,-22.34 52.9,-24.27 52.9,-24.27 -47.67,79.89 -56.77,212.66 -119.39,276.63 57.67,32.89 139.22,27.03 170.76,-7.66 26.31,21.92 160.56,69.44 247.47,-27.26 -0.14,1.73 -0.26,3.43 -0.36,5.1 -4.9,83.97 108.87,76.42 166.19,14.51 5.37,27.39 24.23,45.93 65.14,45.93 32.23,0 57.06,-8.53 71.91,-15.46 l -3.29,9.71 h 111.47 c 0,0 17.22,-64.59 30.62,-96.16 13.4,-31.58 41.62,-75.59 58.84,-71.76 17.22,3.83 -2.87,42.1 -14.35,87.55 -11.48,45.45 11,83.72 74.15,83.72 50.01,0 85.91,-27.9 103.44,-52.34 11.13,24.94 36.41,44.5 80.6,50.48 31.76,3.34 59.62,-4.46 59.62,-4.46 0,0 -36.78,137.63 -100.86,112 35.66,-27.3 35.66,-75.22 -13.37,-86.37 -49.04,-11.14 -79.68,64.64 -12.82,104.76 17.97,10.78 42.3,11.03 68.85,11.03 78.03,0 149.64,-49.03 172.72,-162.99 26.17,19.88 63.33,33.08 109.3,33.08 61.03,0 102.15,-28.15 128.01,-56.29 24.51,32.16 70.6,56.29 132.77,56.29 122.01,0 164.44,-112.49 164.44,-112.49 l -26.85,-14.28 z m -1544.72,-0.36 c -12.18,56.92 -59.91,76.88 -115.82,60.24 5.66,-17.64 18.64,-73.88 41.6,-124.8 0,0 88.53,-2.33 74.22,64.56 z m 53.24,-157.12 c -19.46,63.39 -72.17,57.74 -113.6,57.74 15.69,-69.66 33.89,-98.53 81.59,-98.53 13.5,0 42.68,11.3 32.01,40.79 z m 921.74,115.71 c -5.8,18.81 -34.56,108.73 -57.74,119.7 -25.91,12.26 -49.87,10.03 -39.84,-38.45 10.03,-48.48 50.71,-101.97 79.68,-101.97 10.03,0 14.77,4.32 17,8.64 1.92,3.72 2.14,8.08 0.9,12.08 z m 135.37,50.54 c 13.54,-63.45 47.41,-81.89 75.37,-81.89 27.96,0 41.99,74.65 -75.37,81.89 z m 336.15,-81.89 c 28.85,0 41.99,74.65 -75.37,81.89 13.54,-63.45 47.41,-81.89 75.37,-81.89 z" id="path828"/>
        <circle class="cls-1" cx="813.84003" cy="811.67999" r="83.18" transform="rotate(-45,813.84131,811.68589)" id="circle830"/>
      </g>
      <g id="g858">
        <path class="cls-3" d="m 1387.62,1182.9 c -21.22,4.79 -25.1,16.63 -29.9,37.84 -4.79,-21.22 -8.68,-33.05 -29.9,-37.84 21.22,-4.79 25.1,-18.54 29.9,-39.76 4.79,21.22 8.68,34.97 29.9,39.76 z" id="path840"/>
        <path class="cls-3" d="m 1439.08,986.17 c -17.93,4.05 -21.22,14.05 -25.27,31.98 -4.05,-17.93 -7.34,-27.93 -25.27,-31.98 17.93,-4.05 21.22,-15.67 25.27,-33.61 4.05,17.93 7.34,29.55 25.27,33.61 z" id="path842"/>
        <path class="cls-3" d="m 1900.57,975.93 c -10.62,2.4 -12.57,8.33 -14.97,18.95 -2.4,-10.62 -4.35,-16.55 -14.97,-18.95 10.62,-2.4 12.57,-9.29 14.97,-19.91 2.4,10.62 4.35,17.51 14.97,19.91 z" id="path844"/>
        <path class="cls-3" d="m 959.94,979.07 c -20.32,4.59 -24.05,15.93 -28.64,36.25 -4.59,-20.32 -8.31,-31.66 -28.64,-36.25 20.33,-4.59 24.05,-17.77 28.64,-38.09 4.59,20.32 8.31,33.5 28.64,38.09 z" id="path846"/>
        <path class="cls-3" d="m 905.99,1073.99 c -17.8,2.89 -21.62,12.48 -26.67,29.8 -2.89,-17.8 -5.5,-27.79 -22.82,-32.84 17.8,-2.89 21.72,-14.07 26.77,-31.38 2.89,17.8 5.4,29.38 22.72,34.43 z" id="path848"/>
        <path class="cls-3" d="m 654.02,875.64 c -17.67,3.62 -21.08,13.37 -25.41,30.88 -3.62,-17.67 -6.65,-27.54 -24.16,-31.86 17.67,-3.62 21.12,-14.96 25.44,-32.47 3.62,17.67 6.62,29.13 24.13,33.45 z" id="path850"/>
        <path class="cls-3" d="m 839.69,807.07 c -17.67,3.62 -21.08,13.37 -25.41,30.88 -3.62,-17.67 -6.65,-27.54 -24.16,-31.86 17.67,-3.62 21.12,-14.96 25.44,-32.47 3.62,17.67 6.62,29.13 24.13,33.45 z" id="path852"/>
        <path class="cls-3" d="m 522.23,1034.29 c -17.67,3.62 -21.08,13.37 -25.41,30.88 -3.62,-17.67 -6.65,-27.54 -24.16,-31.86 17.67,-3.62 21.12,-14.96 25.44,-32.47 3.62,17.67 6.62,29.13 24.13,33.45 z" id="path854"/>
        <path class="cls-3" d="m 293.04,902.55 c -28.05,6.55 -33.09,22.26 -39.23,50.41 -6.55,-28.05 -11.81,-43.69 -39.96,-49.83 28.05,-6.55 33.07,-24.8 39.21,-52.95 6.55,28.05 11.83,46.23 39.98,52.37 z" id="path856"/>
      </g>
    </g>
  </g>
<style xmlns="" class="dmm2 dm-fb">html, body, body :not(iframe) {
    background-color: #0e1011 !important;
    border-color: #766c5f !important;
    color: #f2f0ed !important;
}</style></svg>