<svg width="252" height="300" viewBox="0 0 252 300" fill="none" xmlns="http://www.w3.org/2000/svg">
<g clip-path="url(#clip0_732_27)">
<path fill-rule="evenodd" clip-rule="evenodd" d="M151.818 106.866C160.995 102.29 172.672 95.554 184.363 86.325C186.828 91.444 187.098 95.911 185.828 99.518C184.928 102.06 183.232 104.271 181.002 106.03C178.587 107.931 175.571 109.315 172.237 110.063C165.911 111.488 158.525 110.656 151.818 106.866ZM153.409 153.752L165.557 160.769C140.753 174.671 134.01 200.485 126 225.628C117.991 200.485 111.247 174.671 86.4437 160.769L98.5917 153.752C99.7669 153.308 100.771 152.503 101.461 151.453C102.151 150.403 102.491 149.162 102.432 147.907C101.319 124.36 107.677 113.947 116.253 107.409C119.329 105.067 122.687 103.891 126 103.891C129.313 103.891 132.671 105.067 135.748 107.409C144.324 113.947 150.682 124.36 149.569 147.907C149.51 149.162 149.85 150.403 150.539 151.453C151.229 152.503 152.234 153.308 153.409 153.752ZM126 0C140.042 0.377 154.119 3.103 166.336 8.406C174.796 12.083 182.69 16.94 189.838 22.748C193.066 25.37 195.724 27.903 198.652 30.819C206.549 31.092 218.09 22.319 223.448 14.11C214.227 44.34 172.149 80.039 143.018 93.699C143.006 93.694 142.998 93.687 142.989 93.681C137.761 89.689 131.881 87.693 126 87.693C120.119 87.693 114.24 89.689 109.012 93.681C109.003 93.686 108.995 93.695 108.983 93.699C79.8507 80.039 37.7737 44.34 28.5527 14.11C33.9097 22.319 45.4507 31.092 53.3477 30.819C56.2767 27.904 58.9347 25.37 62.1617 22.748C69.3097 16.94 77.2037 12.083 85.6637 8.406C97.8817 3.103 111.959 0.377 126 0ZM100.182 106.866C91.0057 102.29 79.3277 95.554 67.6377 86.325C65.1727 91.444 64.9027 95.911 66.1717 99.518C67.0727 102.06 68.7687 104.271 70.9977 106.03C73.4137 107.931 76.4297 109.315 79.7637 110.063C86.0897 111.488 93.4747 110.656 100.182 106.866Z" fill="black"/>
<path fill-rule="evenodd" clip-rule="evenodd" d="M197.167 75.016C203.603 68.521 209.274 61.332 213.834 54.917L216.15 59.276C223.606 74.193 227.48 89.05 227.48 105.77L227.464 132.302L227.604 146.056C228.144 179.822 235.45 213.985 252 245.249L217.373 217.327L192.872 257.086L167.132 232.855L126 299.604L84.868 232.856L59.129 257.087L34.628 217.328L0 245.25C16.55 213.986 23.856 179.823 24.397 146.057L24.537 132.303L24.521 105.771C24.521 89.05 28.394 74.193 35.852 59.277L38.167 54.918C42.727 61.333 48.397 68.521 54.834 75.017L52.824 79.192C48.919 87.301 47.626 96.368 50.668 104.991C52.629 110.545 56.208 115.308 60.822 118.944C65.302 122.475 70.604 124.855 76.155 126.105C79.771 126.919 83.455 127.254 87.115 127.14C86.261 131.981 85.888 137.002 85.864 142.118L53.2 160.984L78.406 175.113C80.4206 176.243 82.3385 177.537 84.14 178.982C104.921 197.64 117.415 252.837 126.001 279.798C134.588 252.837 147.081 197.64 167.863 178.982C169.664 177.536 171.582 176.242 173.597 175.113L198.803 160.984L166.138 142.118C166.114 137.002 165.741 131.981 164.887 127.14C168.547 127.254 172.231 126.919 175.847 126.105C181.398 124.855 186.701 122.475 191.18 118.944C195.793 115.308 199.373 110.545 201.333 104.991C204.376 96.368 203.082 87.302 199.178 79.192L197.168 75.017L197.167 75.016Z" fill="black"/>
<g clip-path="url(#clip1_732_27)">
<path fill-rule="evenodd" clip-rule="evenodd" d="M148.347 106.317C156.468 102.107 166.801 95.9097 177.147 87.419C179.328 92.1285 179.567 96.2381 178.443 99.5566C177.647 101.895 176.146 103.929 174.173 105.548C172.036 107.297 169.367 108.57 166.417 109.258C160.819 110.569 154.282 109.804 148.347 106.317ZM149.755 149.452L160.505 155.907C138.556 168.697 132.589 192.446 125.5 215.578C118.413 192.446 112.445 168.697 90.4965 155.907L101.247 149.452C102.286 149.043 103.175 148.303 103.786 147.337C104.396 146.371 104.697 145.229 104.645 144.074C103.66 122.411 109.286 112.831 116.875 106.816C119.597 104.662 122.569 103.58 125.5 103.58C128.432 103.58 131.404 104.662 134.127 106.816C141.716 112.831 147.342 122.411 146.357 144.074C146.305 145.229 146.606 146.371 147.216 147.337C147.826 148.303 148.715 149.043 149.755 149.452ZM125.5 8C137.926 8.34684 150.384 10.8548 161.195 15.7335C168.681 19.1164 175.667 23.5848 181.992 28.9282C184.849 31.3404 187.201 33.6708 189.792 36.3535C196.78 36.6046 206.993 28.5335 211.734 20.9812C203.574 48.7928 166.339 81.6359 140.56 94.2031C140.549 94.1985 140.542 94.192 140.534 94.1865C135.908 90.5139 130.705 88.6776 125.5 88.6776C120.296 88.6776 115.094 90.5139 110.467 94.1865C110.459 94.1911 110.452 94.1994 110.442 94.2031C84.6622 81.6359 47.4274 48.7928 39.2676 20.9812C44.0081 28.5335 54.221 36.6046 61.2092 36.3535C63.8011 33.6717 66.1532 31.3404 69.0089 28.9282C75.3343 23.5848 82.3199 19.1164 89.8063 15.7335C100.618 10.8548 113.075 8.34684 125.5 8ZM102.654 106.317C94.5335 102.107 84.1994 95.9097 73.8547 87.419C71.6734 92.1285 71.4344 96.2381 72.5574 99.5566C73.3547 101.895 74.8555 103.929 76.828 105.548C78.966 107.297 81.6349 108.57 84.5852 109.258C90.1833 110.569 96.7184 109.804 102.654 106.317Z" fill="white"/>
<path fill-rule="evenodd" clip-rule="evenodd" d="M188.477 77.0148C194.173 71.0394 199.191 64.4255 203.226 58.5237L205.276 62.534C211.874 76.2576 215.302 89.926 215.302 105.308L215.288 129.718L215.411 142.372C215.889 173.436 222.355 204.866 237 233.629L206.358 207.941L184.676 244.519L161.899 222.227L125.5 283.636L89.1014 222.228L66.3245 244.52L44.643 207.942L14 233.63C28.6454 204.867 35.1107 173.437 35.5894 142.372L35.7133 129.719L35.6991 105.309C35.6991 89.926 39.1264 76.2576 45.7262 62.5349L47.7748 58.5246C51.81 64.4264 56.8275 71.0394 62.5237 77.0157L60.745 80.8567C57.2894 88.317 56.1452 96.6586 58.8372 104.592C60.5725 109.701 63.7396 114.083 67.8226 117.429C71.7871 120.677 76.4789 122.867 81.3911 124.017C84.591 124.766 87.8511 125.074 91.0899 124.969C90.3341 129.423 90.0041 134.042 89.9828 138.749L61.0778 156.105L83.3831 169.104C85.1659 170.143 86.863 171.334 88.4572 172.663C106.847 189.829 117.903 240.61 125.501 265.414C133.1 240.61 144.155 189.829 162.545 172.663C164.139 171.333 165.837 170.143 167.62 169.104L189.925 156.105L161.019 138.749C160.998 134.042 160.668 129.423 159.912 124.969C163.151 125.074 166.411 124.766 169.611 124.017C174.523 122.867 179.216 120.677 183.179 117.429C187.261 114.083 190.429 109.701 192.164 104.592C194.857 96.6586 193.711 88.3179 190.257 80.8567L188.478 77.0157L188.477 77.0148Z" fill="white"/>
</g>
</g>
<defs>
<clipPath id="clip0_732_27">
<rect width="252" height="300" fill="white"/>
</clipPath>
<clipPath id="clip1_732_27">
<rect width="223" height="276" fill="white" transform="translate(14 8)"/>
</clipPath>
</defs>
</svg>
