<svg width="2500" height="2500" viewBox="0 0 2500 2500" fill="none" xmlns="http://www.w3.org/2000/svg">
<g clip-path="url(#clip0_732_11)">
<mask id="mask0_732_11" style="mask-type:luminance" maskUnits="userSpaceOnUse" x="0" y="0" width="2500" height="2500">
<path d="M2500 0H0V2500H2500V0Z" fill="white"/>
</mask>
<g mask="url(#mask0_732_11)">
<mask id="mask1_732_11" style="mask-type:luminance" maskUnits="userSpaceOnUse" x="0" y="0" width="2500" height="2500">
<path d="M2500 0H0V2500H2500V0Z" fill="white"/>
</mask>
<g mask="url(#mask1_732_11)">
<path d="M520.6 1188.9C520.6 1131.2 568 1083.8 625.6 1083.8H802.7C860.4 1083.8 909.8 1131.2 909.8 1191V1858.9C930.4 1852.7 955.1 1846.5 984 1840.3C1023.1 1830 1052 1795 1052 1753.7V925C1052 867.3 1099.4 817.799 1159.1 817.799H1336.2C1393.9 817.799 1443.3 865.2 1443.3 925V1694C1443.3 1694 1486.6 1675.4 1529.8 1656.9C1562.8 1642.5 1583.4 1611.6 1583.4 1574.4V657.099C1583.4 599.399 1630.8 549.9 1688.5 549.9H1865.6C1923.3 549.9 1970.7 597.299 1970.7 657.099V1413.7C2123.1 1302.4 2279.7 1168.4 2403.3 1007.6C2440.4 960.199 2450.7 898.299 2430.1 840.599C2203.5 189.199 1490.9 -157.2 840 69.5997C189.1 296.4 -156.9 1009.6 69.5997 1661.1C94.2997 1735.3 127.3 1805.4 166.4 1873.4C197.3 1927 255 1957.9 316.8 1951.7C349.8 1949.6 391 1945.5 442.4 1939.3C487.7 1935.2 520.7 1896 520.7 1850.6L520.6 1188.9Z" fill="black"/>
<path d="M525.578 1142.33C525.578 1089.46 570.077 1046.03 624.15 1046.03H790.409C844.576 1046.03 890.952 1089.46 890.952 1144.25V1756.25C910.291 1750.57 933.479 1744.89 960.61 1739.2C997.316 1729.77 1024.45 1697.7 1024.45 1659.85V900.519C1024.45 847.649 1068.95 802.291 1124.99 802.291H1291.25C1345.42 802.291 1391.79 845.725 1391.79 900.519V1605.15C1391.79 1605.15 1432.44 1588.11 1473 1571.16C1503.98 1557.96 1523.32 1529.65 1523.32 1495.56V655.042C1523.32 602.172 1567.81 556.816 1621.98 556.816H1788.24C1842.41 556.816 1886.91 600.248 1886.91 655.042V1348.31C2029.98 1246.33 2176.99 1123.55 2293.02 976.205C2327.85 932.772 2337.52 876.053 2318.18 823.183C2105.46 226.308 1436.48 -91.0965 825.425 116.719C214.372 324.535 -110.447 978.038 102.187 1575C125.375 1642.99 156.355 1707.23 193.062 1769.53C222.07 1818.65 276.238 1846.96 334.254 1841.28C365.234 1839.36 403.912 1835.6 452.166 1829.92C494.692 1826.16 525.672 1790.24 525.672 1748.64L525.578 1142.33Z" fill="white"/>
<path d="M516.4 2260.9C1074.6 2667 1855.3 2543.3 2261 1984.7C2415.5 1770.3 2499.9 1512.6 2499.9 1248.8C2499.9 1219.9 2497.8 1191.1 2495.8 1162.2C2040.7 1844.5 1198.2 2164 516.4 2260.9Z" fill="black"/>
<path d="M565 2263.67C1098.86 2632.8 1830.49 2495.74 2218.5 1988C2366.26 1793.12 2462 1583.5 2462 1343.72C2462 1317.45 2459.99 1291.27 2458.08 1265C2022.83 1885.18 1217.07 2175.59 565 2263.67Z" fill="white"/>
</g>
</g>
</g>
<defs>
<clipPath id="clip0_732_11">
<rect width="2500" height="2500" fill="white"/>
</clipPath>
</defs>
</svg>
