<svg width="150" height="150" viewBox="0 0 150 150" fill="none" xmlns="http://www.w3.org/2000/svg">
<circle cx="76.5" cy="74.5" r="37.5" fill="black"/>
<circle cx="76.5014" cy="74.5014" r="34.8529" fill="white"/>
<path d="M146.713 96.9604C152.14 79.2388 150.813 60.1354 142.987 43.3344C135.162 26.5333 121.393 13.2248 104.336 5.97533C87.2786 -1.27414 68.1411 -1.95104 50.6142 4.07517C33.0873 10.1014 18.4124 22.4039 9.41976 38.61C0.427083 54.8162 -2.24645 73.7781 1.91475 91.8389C6.07596 109.9 16.7772 125.78 31.9546 136.417C47.132 147.055 65.7106 151.696 84.1074 149.445C102.504 147.194 119.416 138.212 131.582 124.229L114.285 109.181C105.839 118.889 94.0966 125.126 81.3234 126.688C68.5502 128.251 55.6509 125.029 45.113 117.643C34.5751 110.257 27.1451 99.2313 24.2559 86.6915C21.3667 74.1516 23.223 60.9861 29.4667 49.7339C35.7104 38.4818 45.8994 29.94 58.0686 25.7559C70.2377 21.5718 83.5252 22.0418 95.3683 27.0752C107.211 32.1086 116.771 41.3489 122.205 53.0141C127.638 64.6793 128.559 77.943 124.791 90.2474L146.713 96.9604Z" fill="black"/>
<path d="M147.28 94.3104C152.097 77.0993 150.478 58.7226 142.726 42.6189C134.973 26.5153 121.619 13.788 105.161 6.81858C88.7037 -0.150825 70.2705 -0.884818 53.3108 4.75394C36.3511 10.3927 22.0271 22.0178 13.0189 37.4541C4.01066 52.8904 0.935579 71.0802 4.369 88.6198C7.80242 106.159 17.5091 121.847 31.6727 132.747C45.8364 143.648 63.4865 149.014 81.3206 147.842C99.1546 146.67 115.951 139.039 128.566 126.379L116.082 113.94C106.491 123.565 93.7227 129.365 80.1647 130.257C66.6068 131.148 53.1886 127.068 42.421 118.781C31.6534 110.495 24.2741 98.5684 21.6639 85.2343C19.0537 71.9001 21.3915 58.0718 28.2398 46.3367C35.0881 34.6015 45.9777 25.7638 58.8709 21.477C71.7642 17.1903 85.7776 17.7483 98.2892 23.0466C110.801 28.345 120.953 38.0206 126.847 50.2631C132.74 62.5056 133.971 76.476 130.309 89.5604L147.28 94.3104Z" fill="white"/>
</svg>
