<svg width="32" height="32" viewBox="0 0 32 32" fill="none" xmlns="http://www.w3.org/2000/svg">
<path d="M3.06204 13.7625C11.1166 10.2347 16.4863 7.90891 19.1712 6.78508C26.8459 3.57633 28.4387 3.01904 29.479 3.00016C29.7078 2.99648 30.2171 3.05333 30.5495 3.32351C30.8257 3.55138 30.9034 3.85953 30.9423 4.07589C30.9768 4.29204 31.0243 4.78466 30.9855 5.1692C30.5711 9.56153 28.7711 20.2203 27.856 25.14C27.4718 27.2216 26.7078 27.9195 25.9697 27.9876C24.364 28.136 23.1467 26.9216 21.5928 25.8978C19.1626 24.2949 17.7899 23.2975 15.4288 21.7338C12.7008 19.9265 14.4705 18.933 16.0245 17.3097C16.4302 16.8848 23.5006 10.42 23.6345 9.83366C23.6517 9.76031 23.669 9.48688 23.505 9.34278C23.3453 9.19825 23.1079 9.24773 22.9352 9.28679C22.6892 9.34235 18.8086 11.9239 11.2807 17.0311C10.1799 17.7924 9.18283 18.1635 8.285 18.1439C7.30084 18.1227 5.40158 17.5832 3.99009 17.1222C2.26349 16.5567 0.88653 16.2577 1.00739 15.2972C1.06782 14.7972 1.75415 14.2855 3.06204 13.7625Z" fill="white"/>
</svg>
