<svg width="32" height="32" viewBox="0 0 32 32" fill="none" xmlns="http://www.w3.org/2000/svg">
<path d="M3.06204 13.7625C11.1166 10.2347 16.4863 7.90891 19.1712 6.78508C26.8459 3.57633 28.4387 3.01904 29.479 3.00016C29.7078 2.99648 30.2171 3.05333 30.5495 3.32351C30.8257 3.55138 30.9034 3.85953 30.9423 4.07589C30.9768 4.29204 31.0243 4.78466 30.9855 5.1692C30.5711 9.56153 28.7711 20.2203 27.856 25.14C27.4718 27.2216 26.7078 27.9195 25.9697 27.9876C24.364 28.136 23.1467 26.9216 21.5928 25.8978C19.1626 24.2949 17.7899 23.2975 15.4288 21.7338C12.7008 19.9265 14.4705 18.933 16.0245 17.3097C16.4302 16.8848 23.5006 10.42 23.6345 9.83366C23.6517 9.76031 23.669 9.48688 23.505 9.34278C23.3453 9.19825 23.1079 9.24773 22.9352 9.28679C22.6892 9.34235 18.8086 11.9239 11.2807 17.0311C10.1799 17.7924 9.18283 18.1635 8.285 18.1439C7.30084 18.1227 5.40158 17.5832 3.99009 17.1222C2.26349 16.5567 0.88653 16.2577 1.00739 15.2972C1.06782 14.7972 1.75415 14.2855 3.06204 13.7625Z" fill="black"/>
<path d="M5.7871 13.471C12.7677 10.3665 17.4215 8.31984 19.7484 7.33087C26.3998 4.50717 27.7802 4.01676 28.6818 4.00014C28.8801 3.9969 29.3215 4.04693 29.6096 4.28469C29.849 4.48521 29.9163 4.75639 29.95 4.94679C29.9799 5.13699 30.0211 5.5705 29.9874 5.9089C29.6283 9.77415 28.0683 19.1539 27.2752 23.4832C26.9423 25.315 26.2801 25.9291 25.6404 25.9891C24.2488 26.1197 23.1938 25.051 21.8471 24.15C19.7409 22.7395 18.5513 21.8618 16.505 20.4857C14.1407 18.8953 15.6745 18.021 17.0212 16.5926C17.3729 16.2186 23.5006 10.5296 23.6165 10.0136C23.6315 9.94908 23.6465 9.70845 23.5043 9.58165C23.3659 9.45446 23.1601 9.498 23.0105 9.53238C22.7973 9.58127 19.4341 11.8531 12.9099 16.3474C11.956 17.0173 11.0918 17.3438 10.3137 17.3267C9.46073 17.3079 7.81471 16.8332 6.59141 16.4276C5.09503 15.9299 3.90166 15.6667 4.00641 14.8215C4.05878 14.3815 4.65359 13.9312 5.7871 13.471Z" fill="white"/>
</svg>
