<svg width="40" height="32" viewBox="0 0 40 32" fill="none" xmlns="http://www.w3.org/2000/svg">
<g clip-path="url(#clip0_730_2)">
<mask id="mask0_730_2" style="mask-type:luminance" maskUnits="userSpaceOnUse" x="0" y="0" width="40" height="32">
<path d="M39.2 0H0V32H39.2V0Z" fill="white"/>
</mask>
<g mask="url(#mask0_730_2)">
<path d="M39.1981 3.89677C37.7304 4.54708 36.1736 4.97389 34.5794 5.16299C36.2399 4.16778 37.5148 2.59181 38.1152 0.714072C36.5367 1.65073 34.8097 2.3107 33.0088 2.66546C31.5419 1.10267 29.4521 0.125977 27.139 0.125977C22.6979 0.125977 19.0972 3.72651 19.0972 8.16732C19.0972 8.79767 19.1684 9.41133 19.3055 10C12.6222 9.66458 6.69684 6.4632 2.73053 1.59798C2.03847 2.78565 1.64191 4.16716 1.64191 5.64069C1.64191 8.43067 3.0617 10.8919 5.21933 12.3341C3.9423 12.2941 2.69337 11.9492 1.57684 11.3281C1.57643 11.3618 1.57628 11.3955 1.57638 11.4293C1.57638 15.3255 4.34829 18.5757 8.02691 19.3145C6.84273 19.6365 5.60062 19.6836 4.39545 19.4523C5.41868 22.6471 8.38856 24.9719 11.9073 25.037C9.15518 27.1937 5.68769 28.4794 1.92027 28.4794C1.27108 28.4794 0.631082 28.4412 0.00195312 28.367C3.56069 30.6486 7.7876 31.9799 12.3288 31.9799C27.1203 31.9799 35.2087 19.7264 35.2087 9.09991C35.2087 8.75112 35.2009 8.40433 35.1854 8.05953C36.7596 6.92131 38.1184 5.51169 39.1981 3.89677Z" fill="black"/>
<path d="M37 5.47676C35.6576 6.07636 34.2337 6.46989 32.7756 6.64425C34.2943 5.72664 35.4604 4.27356 36.0095 2.54224C34.5658 3.40586 33.2958 3.54387 31.6486 3.87097C30.307 2.43004 28.086 2 25.9704 2C21.9084 2 18.8056 5.47676 18.8056 9.48387C18.8056 10.0651 18.8746 10.8121 19 11.3548C12.8873 11.0456 6.71556 7.90698 3.08786 3.42113C2.45488 4.51619 2.64997 5.72607 2.64997 7.0847C2.64997 9.65712 3.94856 11.9264 5.92199 13.2562C4.75398 13.2193 3.61167 12.9013 2.59046 12.3286C2.59008 12.3597 2.58995 12.3908 2.59004 12.4219C2.59004 16.0143 5.12531 19.0111 8.48989 19.6923C7.4068 19.9892 6.27073 20.0326 5.16844 19.8193C6.10432 22.765 8.82066 24.9085 12.039 24.9686C9.52184 26.9571 6.35037 28.1425 2.90457 28.1425C2.3108 28.1425 1.57542 28.2109 1 28.1425C4.25493 30.2462 7.98904 31 12.1426 31C25.6713 31 33.3512 20.0721 33.3512 10.2742C33.3512 9.95259 33.3654 9.42358 33.3512 9.10566C34.791 8.0562 36.0125 6.96576 37 5.47676Z" fill="white"/>
</g>
</g>
<defs>
<clipPath id="clip0_730_2">
<rect width="40" height="32" fill="white"/>
</clipPath>
</defs>
</svg>
